Coordinates
version=1
nRows=28
nColumns=19
inDegrees=yes

Units are S.I. units (second, meters, Newtons, ...)
Angles are in degrees.

endheader
time	1_Force_X	1_Force_Y	1_Force_Z	1_Moment_X	1_Moment_Y	1_Moment_Z	1_COP_X	1_COP_Y	1_COP_Z	2_Force_X	2_Force_Y	2_Force_Z	2_Moment_X	2_Moment_Y	2_Moment_Z	2_COP_X	2_COP_Y	2_COP_Z
1.6400	46.401	1068.722	6.756	-0.305	0.000	0.472	34.752	937.675	-48.154	-0.364	0.000	0.086	0.00000	27.39527	0.00000	0.00000	-16.45075	0.00000
1.6425	45.301	1062.644	6.461	-0.305	0.000	0.472	32.686	937.171	-46.058	-0.364	0.000	0.087	0.00000	27.25346	0.00000	0.00000	-16.61016	0.00000
1.6450	44.646	1053.955	5.990	-0.305	0.000	0.472	32.318	935.474	-42.908	-0.364	0.000	0.087	0.00000	27.11264	0.00000	0.00000	-16.52489	0.00000
1.6475	42.844	1047.873	6.179	-0.305	0.000	0.473	30.868	934.463	-40.897	-0.365	0.000	0.088	0.00000	26.82975	0.00000	0.00000	-16.35954	0.00000
1.6500	41.619	1042.302	5.876	-0.305	0.000	0.473	30.158	935.168	-38.659	-0.365	0.000	0.089	0.00000	26.41378	0.00000	0.00000	-16.27947	0.00000
1.6525	40.651	1038.648	6.677	-0.306	0.000	0.473	30.103	934.841	-36.639	-0.365	0.000	0.089	0.00000	26.23755	0.00000	0.00000	-16.16922	0.00000
1.6550	39.380	1033.085	6.864	-0.306	0.000	0.473	30.132	933.147	-33.835	-0.365	0.000	0.090	0.00000	25.94957	0.00000	0.00000	-15.93107	0.00000
1.6575	38.199	1027.171	7.536	-0.307	0.000	0.474	31.251	931.284	-30.939	-0.365	0.000	0.090	0.00000	25.65604	0.00000	0.00000	-15.60001	0.00000
1.6600	37.591	1020.729	8.204	-0.307	0.000	0.474	32.810	930.102	-28.606	-0.365	0.000	0.091	0.00000	25.34874	0.00000	0.00000	-15.32855	0.00000
1.6625	36.318	1016.379	8.344	-0.307	0.000	0.474	34.066	928.749	-26.494	-0.365	0.000	0.091	0.00000	25.05583	0.00000	0.00000	-14.99750	0.00000
1.6650	35.271	1009.942	9.016	-0.307	0.000	0.474	35.364	926.536	-24.474	-0.365	0.000	0.092	0.00000	24.70925	0.00000	0.00000	-14.72055	0.00000
1.6675	34.086	1004.208	9.426	-0.308	0.000	0.474	37.015	923.463	-22.845	-0.365	0.000	0.092	0.00000	24.49032	0.00000	0.00000	-14.32443	0.00000
1.6700	32.330	999.176	9.881	-0.308	0.000	0.474	38.012	920.553	-21.699	-0.365	0.000	0.093	0.00000	24.24172	0.00000	0.00000	-14.15773	0.00000
1.6725	31.715	994.134	10.068	-0.309	0.000	0.474	39.094	916.614	-20.426	-0.364	0.000	0.094	0.00000	24.09556	0.00000	0.00000	-13.94793	0.00000
1.6750	31.194	987.874	10.344	-0.309	0.000	0.474	40.046	914.569	-18.801	-0.364	0.000	0.094	0.00000	23.84223	0.00000	0.00000	-13.69945	0.00000
1.6775	30.141	982.489	10.225	-0.309	0.000	0.474	40.385	910.975	-17.270	-0.364	0.000	0.095	0.00000	23.60549	0.00000	0.00000	-13.52277	0.00000
1.6800	29.788	976.923	9.927	-0.310	0.000	0.474	40.072	908.238	-15.916	-0.364	0.000	0.095	0.00000	23.45579	0.00000	0.00000	-13.38330	0.00000
1.6825	29.964	970.839	9.719	-0.310	0.000	0.473	40.411	903.785	-14.434	-0.365	0.000	0.095	0.00000	23.39939	0.00000	0.00000	-13.19105	0.00000
1.6850	30.323	963.368	9.601	-0.311	0.000	0.473	40.320	900.874	-13.781	-0.364	0.000	0.095	0.00000	23.35089	0.00000	0.00000	-13.00862	0.00000
1.6875	30.329	956.940	9.393	-0.311	0.000	0.472	39.836	898.990	-13.261	-0.364	0.000	0.096	0.00000	23.25238	0.00000	0.00000	-12.92189	0.00000
1.6900	30.731	951.728	9.448	-0.311	0.000	0.472	39.703	896.246	-13.134	-0.364	0.000	0.096	0.00000	23.20398	0.00000	0.00000	-12.81554	0.00000
1.6925	30.957	945.304	9.287	-0.311	0.000	0.471	39.834	892.295	-13.403	-0.364	0.000	0.096	0.00000	23.15552	0.00000	0.00000	-12.71325	0.00000
1.6950	31.048	939.408	8.908	-0.312	0.000	0.470	40.575	887.832	-13.542	-0.364	0.000	0.096	0.00000	23.17367	0.00000	0.00000	-12.51600	0.00000
1.6975	31.670	933.162	8.748	-0.312	0.000	0.469	41.492	883.711	-13.766	-0.364	0.000	0.096	0.00000	23.24793	0.00000	0.00000	-12.34359	0.00000
1.7000	31.721	927.788	8.720	-0.312	0.000	0.468	42.847	878.557	-14.429	-0.363	0.000	0.095	0.00000	23.26220	0.00000	0.00000	-12.12307	0.00000
1.7025	31.725	921.197	8.298	-0.313	0.000	0.467	44.023	873.577	-14.568	-0.363	0.000	0.095	0.00000	23.22369	0.00000	0.00000	-11.95893	0.00000
1.7050	31.422	915.660	8.278	-0.313	0.000	0.466	45.813	867.740	-14.752	-0.363	0.000	0.095	0.00000	23.26653	0.00000	0.00000	-11.64528	0.00000
1.7075	32.257	910.281	7.455	-0.313	0.000	0.465	47.694	863.957	-15.717	-0.363	0.000	0.094	0.00000	23.41249	0.00000	0.00000	-11.44205	0.00000
